<svg width="256" height="256" viewBox="0 0 256 256" fill="none" xmlns="http://www.w3.org/2000/svg">
<style>
	@media (prefers-color-scheme: dark) {
		.primary {
			fill: #ffffff;
		}
	}
</style>
<path class="primary" d="M26 156.482V57H51.2371V156.482C51.2371 171.692 62.7715 184.022 77 184.022C91.2284 184.022 102.763 171.692 102.763 156.482V57H128V156.482C128 186.591 105.167 211 77 211C48.8335 211 26 186.591 26 156.482Z" fill="#17288B"/>
<path d="M116.608 197.082C124.912 187.9 130.409 175.858 131.704 162.559L192.293 135H252L116.608 197.082Z" fill="#00AFDD"/>
<path d="M209 211H181.709L166.62 178.271L189.153 167.948L209 211ZM132 57C135.659 57 138.984 59.1228 140.51 62.4342L175.205 137.692L152.641 147.946L132 103.173V57Z" fill="#00AFDD"/>
</svg>
