<svg width="226" height="154" viewBox="0 0 226 154" fill="none" xmlns="http://www.w3.org/2000/svg">
<style>
	@media (prefers-color-scheme: dark) {
		.primary {
			<!-- fill: #ffffff; -->
		}
	}
</style>
<path class="primary" d="M0 99.4818V0H25.2371V99.4818C25.2371 114.692 36.7715 127.022 51 127.022C65.2284 127.022 76.7629 114.692 76.7629 99.4818V0H102V99.4818C102 129.591 79.1665 154 51 154C22.8335 154 0 129.591 0 99.4818Z" fill="#17288B"/>
<path d="M90.6084 140.082C98.912 130.9 104.409 118.858 105.704 105.559L166.293 78H226L90.6084 140.082Z" fill="#00AFDD"/>
<path d="M183 154H155.709L140.62 121.271L163.153 110.948L183 154ZM106 0C109.659 0 112.984 2.12275 114.51 5.43425L149.205 80.6921L126.641 90.946L106 46.173V0Z" fill="#00AFDD"/>
</svg>
